<?xml version="1.0" encoding="UTF-8"?>
<!-- Created with Inkscape (http://www.inkscape.org/) -->
<svg width="16" height="16" version="1.1" viewBox="0 0 4.2333 4.2333" xmlns="http://www.w3.org/2000/svg">
 <path d="m2.0813 0.60732-0.12109 2e-3c-0.53945 0.0532-1.0335 0.37731-1.2246 0.91211-0.039 0.10873-0.0647 0.19002-0.0762 0.31055-0.0114 0.12052-0.0117 0.27888-0.0117 0.57421 0 0.28314 1e-3 0.43744 0.01 0.55079 8e-3 0.11335 0.0262 0.18595 0.0547 0.27734 0.16582 0.52905 0.62806 0.92551 1.1719 1.0039 0.19627 0.0283 0.4149 0.0114 0.60938-0.0449 0.53105-0.15388 0.92266-0.59456 1.0234-1.1484 0.0108-0.0591 0.0128-0.13384 0.0156-0.2461 3e-3 -0.11226 4e-3 -0.25051 4e-3 -0.38867s-1e-3 -0.27446-4e-3 -0.38672c-3e-3 -0.11225-5e-3 -0.18699-0.0156-0.24609-0.0559-0.30646-0.19316-0.56991-0.41016-0.78516-0.17722-0.17578-0.37886-0.25827-0.61328-0.32618-0.13666-0.0396-0.276-0.0595-0.41211-0.0586zm2e-3 0.21094h0.0117c0.10923 3.6e-4 0.2205 0.0152 0.33007 0.0469 0.19747 0.0572 0.35644 0.15064 0.50782 0.30078 0.1831 0.18163 0.29392 0.39395 0.34179 0.65625 4.8e-4 3e-3 9e-3 0.0979 0.0117 0.20703 3e-3 0.10916 4e-3 0.24439 4e-3 0.38086s-1e-3 0.27366-4e-3 0.38281c-3e-3 0.10916-0.0112 0.20435-0.0117 0.20703-0.0849 0.46667-0.40798 0.82906-0.84961 0.95704-0.15785 0.0457-0.35021 0.0596-0.50586 0.0371-0.44646-0.0644-0.83359-0.39461-0.9707-0.83204-0.027-0.0868-0.0377-0.12761-0.0449-0.22461-7e-3 -0.097-0.01-0.24864-0.01-0.53125 0-0.29486 2e-3 -0.45094 0.0117-0.55078 0.01-0.0998 0.0247-0.14654 0.0625-0.25195 0.17093-0.47823 0.62602-0.78153 1.1152-0.78516z" color="#000000" fill="#e0e0e0"/>
</svg>
