<?xml version="1.0" encoding="UTF-8"?>
<!-- Created with Inkscape (http://www.inkscape.org/) -->
<svg width="16" height="16" version="1.1" viewBox="0 0 4.2333 4.2333" xmlns="http://www.w3.org/2000/svg">
 <path d="m1.9119 4.2204c-0.53176-0.0767-0.98708-0.46716-1.1498-0.98617-0.06-0.19136-0.0639-0.24399-0.0639-0.85158 0-0.63386 4e-3 -0.67512 0.0861-0.90512 0.12443-0.34814 0.39104-0.63972 0.73029-0.7987 0.77837-0.36476 1.6978 0.0417 1.9557 0.86461 0.0599 0.1911 0.0639 0.24444 0.0639 0.8454 0 0.60172-4e-3 0.65265-0.0645 0.84833-0.20445 0.65999-0.87298 1.0819-1.5579 0.98323zm0.13844-2c0.0663-0.0493 0.0655-0.041 0.0657-0.67747 1.8e-4 -0.63705 1.4e-4 -0.63766-0.0644-0.68287-0.0919-0.0644-0.42965 0.0471-0.63512 0.20956-0.15619 0.12349-0.28506 0.29619-0.35731 0.47884-0.0565 0.1427-0.0732 0.23835-0.0747 0.42748-8.9e-4 0.15987 8.7e-4 0.17853 0.0246 0.21054 0.0462 0.0626 0.0721 0.0655 0.55834 0.0626 0.43337-3e-3 0.4492-4e-3 0.483-0.0286zm-1.7576-0.71721c-0.0364-0.0205-0.0714-0.0768-0.0714-0.11499 0-0.0404 0.0474-0.1645 0.11689-0.30597 0.14848-0.30233 0.42514-0.62542 0.53553-0.62542 0.0618 0 0.1146 0.0321 0.13568 0.0826 0.0297 0.071 0.0127 0.10831-0.10671 0.23362-0.17881 0.18769-0.28186 0.34556-0.37199 0.56982-0.0281 0.07-0.0617 0.13684-0.0745 0.14845-0.0323 0.0293-0.12124 0.0357-0.16351 0.0119z" fill="#e0e0e0" stroke-width=".012384"/>
</svg>
