<?xml version="1.0" encoding="UTF-8"?>
<!-- Created with Inkscape (http://www.inkscape.org/) -->
<svg width="16" height="16" version="1.1" viewBox="0 0 4.2333 4.2333" xmlns="http://www.w3.org/2000/svg">
 <path d="m1.9119 4.2204c-0.53178-0.0767-0.98709-0.46717-1.1498-0.98616-0.06-0.19138-0.0639-0.244-0.0639-0.85159 0-0.63386 4e-3 -0.67513 0.0861-0.90512 0.12444-0.34814 0.39104-0.63972 0.73029-0.7987 0.77892-0.36501 1.6976 0.0411 1.9557 0.86461 0.0599 0.1911 0.0639 0.24444 0.0639 0.8454 0 0.60173-4e-3 0.65266-0.0645 0.84833-0.20445 0.65999-0.87299 1.0819-1.5579 0.98323zm0.42107-1.7696 0.21026-0.21054h-0.27838v-0.84215h0.27856l-0.42717-0.42716-0.21359 0.21357-0.21359 0.21359h0.27857v0.84215h-0.27839l0.21027 0.21054c0.11565 0.11579 0.21317 0.21053 0.21673 0.21053 4e-3 0 0.10108-0.0947 0.21673-0.21053z" fill="#e0e0e0" stroke-width=".012384"/>
</svg>
