<?xml version="1.0" encoding="UTF-8"?>
<!-- Created with Inkscape (http://www.inkscape.org/) -->
<svg width="16" height="16" version="1.1" viewBox="0 0 4.2333 4.2333" xmlns="http://www.w3.org/2000/svg">
 <path d="m1.9119 4.2204c-0.59497-0.0998-1.0572-0.56253-1.1675-1.169-0.0242-0.13268-0.0242-1.1801 0-1.3128 0.0851-0.46819 0.38039-0.85722 0.79952-1.0536 0.77838-0.36476 1.6978 0.0417 1.9557 0.86461 0.0599 0.1911 0.0639 0.24444 0.0639 0.84539 0 0.60173-4e-3 0.65266-0.0645 0.84834-0.2082 0.67207-0.89274 1.0935-1.5872 0.97707zm1.2728-1.9778c0.0232-8e-3 0.0538-0.0306 0.0681-0.0499 0.0237-0.032 0.0258-0.0507 0.0245-0.21055-8.9e-4 -0.11555-8e-3 -0.20441-0.0218-0.2604-0.0992-0.41368-0.40969-0.73752-0.81461-0.84973-0.13239-0.0367-0.19854-0.0337-0.24869 0.0111l-0.0404 0.0361v1.2509l0.0302 0.0322c0.0167 0.0178 0.0473 0.0372 0.0681 0.0432 0.0598 0.0174 0.884 0.0147 0.93455-3e-3zm0.65091-0.72629c-0.0384-0.0155-0.0515-0.0367-0.1053-0.16927-0.091-0.22423-0.1938-0.38145-0.37132-0.56779-0.11937-0.12531-0.13638-0.16255-0.10669-0.23361 0.0211-0.0504 0.0739-0.0826 0.13567-0.0826 0.0551 0 0.13463 0.063 0.24992 0.19775 0.16568 0.19369 0.27393 0.37249 0.3592 0.59329 0.0485 0.12572 0.0513 0.14828 0.0245 0.20012-0.0318 0.0615-0.11721 0.09-0.18598 0.0621z" fill="#e0e0e0" stroke-width=".012384"/>
</svg>
