<?xml version="1.0" encoding="UTF-8"?>
<!-- Created with Inkscape (http://www.inkscape.org/) -->
<svg width="16" height="16" version="1.1" viewBox="0 0 4.2333 4.2333" xmlns="http://www.w3.org/2000/svg">
 <path d="m1.5065 0.20465c-3e-3 -0.0418 0.0255-0.10173 0.0575-0.12254 0.0339-0.022 0.16373-0.05 0.32022-0.0688 0.3344-0.0403 0.75609 0.0154 0.81627 0.10798 0.0336 0.0517 0.0356 0.11358 4e-3 0.15879-0.0434 0.0636-0.0839 0.0697-0.25402 0.0379-0.25483-0.0476-0.44336-0.0479-0.6805-9e-4 -0.074 0.0146-0.14833 0.0229-0.16507 0.0185-0.0422-0.0112-0.096-0.0822-0.0991-0.13061zm0.60038 0.3403c-0.57975 4e-3 -1.1199 0.36546-1.3226 0.93247-0.0825 0.23-0.0862 0.2714-0.0862 0.90526 0 0.6076 4e-3 0.65993 0.0636 0.85129 0.16267 0.51899 0.61837 0.90977 1.1501 0.98642 0.18898 0.0272 0.40984 0.011 0.59904-0.0438 0.52232-0.15136 0.90655-0.58366 1.0063-1.1317 0.0242-0.13268 0.0242-1.1798 0-1.3125-0.0556-0.30542-0.18866-0.56117-0.40352-0.77429-0.17644-0.17502-0.37081-0.2902-0.60274-0.3574-0.13432-0.0389-0.27019-0.0567-0.40397-0.0558zm0.01 0.28685a0.23611 0.23611 0 0 1 0.23703 0.23703v0.88865a0.23611 0.23611 0 0 1-0.23703 0.2352 0.23611 0.23611 0 0 1-0.23519-0.2352v-0.88865a0.23611 0.23611 0 0 1 0.23519-0.23703z" fill="#e0e0e0" stroke-width=".012384"/>
</svg>
