<?xml version="1.0" encoding="UTF-8"?>
<!-- Created with Inkscape (http://www.inkscape.org/) -->
<svg width="16" height="16" version="1.1" viewBox="0 0 4.2333 4.2333" xmlns="http://www.w3.org/2000/svg">
 <path d="m2.3912 4.2199c0.21646-0.0527 0.34891-0.27211 0.28722-0.47577-0.03436-0.11341-0.10152-0.19344-0.20138-0.23994-0.08214-0.0382-0.10178-0.04-0.45491-0.0404-0.42526-5.1e-4 -0.53852-0.0178-0.72975-0.11127-0.16097-0.0787-0.33706-0.25212-0.4149-0.40866-0.1416-0.28478-0.14215-0.59737-0.0015-0.88912 0.07217-0.14976 0.2662-0.34078 0.42317-0.41661 0.20089-0.097 0.25998-0.10283 1.0544-0.10315l0.71717-3.2e-4v0.37746c0 0.2076 0.0057 0.37746 0.01267 0.37746 7e-3 0 0.26742-0.25483 0.57877-0.56628l0.56609-0.56628-0.57877-0.57858-0.57877-0.57859v0.7603l-1.5853 0.014-0.16776 0.0445c-0.67914 0.18017-1.1744 0.71817-1.2927 1.4042-0.03021 0.17525-0.0266 0.29575 0.01583 0.52844 0.149 0.81711 0.74276 1.3855 1.5344 1.4688 0.16976 0.0179 0.74297 0.018 0.81614 1.9e-4z" fill="#e0e0e0" stroke-width=".016776"/>
</svg>
